<svg xmlns="http://www.w3.org/2000/svg" viewBox="0 0 104.54 90.32"><g id="a712eb63-9c40-42ca-9e30-a9b8c4eac8c1" data-name="Ebene 2"><g id="b27b8065-aa35-47e0-8765-61c2d6d8d060" data-name="Ebene 1"><path d="M66.29,36.57H55.85a3,3,0,0,0-3.05,3V41.1H33.14L50.58,6a4.18,4.18,0,0,0-3.74-6H4.19A4.19,4.19,0,0,0,.45,6.05L19.71,44.68.43,84.31a4.17,4.17,0,0,0,3.75,6H46.84a4.18,4.18,0,0,0,3.76-6L33.22,48.61H52.8v1.46a3,3,0,0,0,3.05,3H66.29a3.05,3.05,0,0,0,3.06-3V39.62A3.06,3.06,0,0,0,66.29,36.57ZM9.57,7.51h31.9l-15.94,32Zm32,75.3H9.5l16-32.88Z" fill="#073a73"/><path d="M101.48,35.13h-.26A2.9,2.9,0,0,1,98.59,32c2-22.55-19.15-25.69-20-25.82A2.9,2.9,0,1,1,79.32.4c.28,0,27.6,4.07,25.05,32.09A2.89,2.89,0,0,1,101.48,35.13Z" fill="#073a73"/><path d="M91,37.19h-.27A2.91,2.91,0,0,1,88.08,34c1.31-14.41-12.21-16.42-12.79-16.5a2.91,2.91,0,1,1,.78-5.76c.2,0,19.6,2.9,17.8,22.78A2.91,2.91,0,0,1,91,37.19Z" fill="#073a73"/><path d="M78.89,36.94h-.26A2.91,2.91,0,0,1,76,33.77a4.46,4.46,0,0,0-4-5.15,2.93,2.93,0,0,1-2.44-3.3,2.9,2.9,0,0,1,3.25-2.46,10.29,10.29,0,0,1,9,11.44A2.9,2.9,0,0,1,78.89,36.94Z" fill="#073a73"/></g></g></svg>